<svg xmlns="http://www.w3.org/2000/svg" xmlns:xlink="http://www.w3.org/1999/xlink" width="173.21" height="173.699" viewBox="0 0 173.21 173.699">
  <defs>
    <clipPath id="clip-path">
      <rect id="Rechteck_9" data-name="Rechteck 9" width="124.979" height="121.674" fill="#ffffff"/>
    </clipPath>
  </defs>
  <g id="Gruppe_24" data-name="Gruppe 24" transform="translate(-1613.395 -866.301)">
    <path id="Differenzmenge_1" data-name="Differenzmenge 1" d="M58.09,102.795h0l-1.2-1.607c1.152-.979,2.28-2.018,3.351-3.089a56.424,56.424,0,0,0,6.472-7.753l1.724,1.023A58.306,58.306,0,0,1,58.09,102.794ZM-27.524,29.922h0l-1.882-.747a58.286,58.286,0,0,1,15.817-17.5l1.176,1.617a56.3,56.3,0,0,0-13.378,13.9c-.6.887-1.182,1.806-1.731,2.73Z" transform="translate(1678.355 894.5)" fill="#ffffff"/>
    <g id="Gruppe_9" data-name="Gruppe 9" transform="translate(1613.395 963.428) rotate(-51)">
      <path id="Pfad_42" data-name="Pfad 42" d="M80.429,4.786l-.551,1.173-2.332-1.1-3.565,7.589-1.436-.675,3.563-7.588-2.343-1.1.549-1.172Z" transform="translate(11.646 0.307)" fill="#ffffff"/>
      <path id="Pfad_43" data-name="Pfad 43" d="M84.923,8.949l-1.668,2.3,2.708,1.961L85.2,14.259,82.5,12.3l-1.741,2.4L83.8,16.906l-.76,1.05-4.33-3.138L84.4,6.969l4.33,3.138-.76,1.048Z" transform="translate(12.636 1.119)" fill="#ffffff"/>
      <g id="Gruppe_8" data-name="Gruppe 8">
        <g id="Gruppe_7" data-name="Gruppe 7" clip-path="url(#clip-path)">
          <path id="Pfad_44" data-name="Pfad 44" d="M88.668,23.453l1.322-4.267-.824-.889-2.838,2.634-1.08-1.164,7.094-6.584,2.273,2.449a4.166,4.166,0,0,1,1,1.649,2.712,2.712,0,0,1,.021,1.557,2.859,2.859,0,0,1-.811,1.277,2.9,2.9,0,0,1-1.635.766,2.791,2.791,0,0,1-1.921-.525l-1.311,4.484Zm1.426-6.017,1.194,1.286a1.837,1.837,0,0,0,1.241.681,1.6,1.6,0,0,0,1.186-.483,1.547,1.547,0,0,0,.559-1.127,1.9,1.9,0,0,0-.608-1.279l-1.193-1.286Z" transform="translate(13.685 2.116)" fill="#ffffff"/>
          <path id="Pfad_45" data-name="Pfad 45" d="M104.938,30.868l-8.459,4.7-.772-1.389,5.793-3.22-7.228.642-.534-.962,4.352-5.814L92.3,28.051l-.772-1.388,8.459-4.7.832,1.5-4.982,6.659,8.278-.731Z" transform="translate(14.693 3.525)" fill="#ffffff"/>
          <rect id="Rechteck_7" data-name="Rechteck 7" width="9.679" height="1.588" transform="translate(112.56 43.355) rotate(-17.811)" fill="#ffffff"/>
          <path id="Pfad_46" data-name="Pfad 46" d="M99.565,50.41l-.216-1.573,6.518-5.71L98.7,44.1l-.215-1.573,9.6-1.309.214,1.573-6.5,5.708,7.148-.974.215,1.573Z" transform="translate(15.811 6.618)" fill="#ffffff"/>
          <path id="Pfad_47" data-name="Pfad 47" d="M101.938,65.4a2.483,2.483,0,0,1-2.85-.413,2.6,2.6,0,0,1-.7-1.27,3.93,3.93,0,0,1,0-1.719l.767-3.8,9.487,1.92-.731,3.616a3.976,3.976,0,0,1-.664,1.6,2.5,2.5,0,0,1-1.093.874,2.272,2.272,0,0,1-1.307.1,2.151,2.151,0,0,1-1.277-.711,2.579,2.579,0,0,1-.569-1.337,2.14,2.14,0,0,1-1.068,1.134m-2.117-1.962a1.344,1.344,0,0,0,.973.665,1.411,1.411,0,0,0,1.2-.254,1.926,1.926,0,0,0,.665-1.186l.414-2.048-2.962-.6-.426,2.1a1.9,1.9,0,0,0,.132,1.32m4.525-2.566-.39,1.924a1.885,1.885,0,0,0,.107,1.265,1.243,1.243,0,0,0,.917.632,1.262,1.262,0,0,0,1.09-.226,1.84,1.84,0,0,0,.6-1.122l.389-1.924Z" transform="translate(15.78 9.344)" fill="#ffffff"/>
          <path id="Pfad_48" data-name="Pfad 48" d="M105.278,72.674l-5.639-2.5a1.984,1.984,0,0,0-2.911,1.1,2.245,2.245,0,0,0-.15,1.709,2.2,2.2,0,0,0,1.28,1.2l5.639,2.5-.644,1.451L97.24,75.644a3.705,3.705,0,0,1-1.624-1.285,3.2,3.2,0,0,1-.562-1.757,4.451,4.451,0,0,1,.406-1.908,4.392,4.392,0,0,1,1.14-1.575,3.12,3.12,0,0,1,1.671-.743,3.78,3.78,0,0,1,2.037.355l5.613,2.492Z" transform="translate(15.26 10.973)" fill="#ffffff"/>
          <path id="Pfad_49" data-name="Pfad 49" d="M98.621,81.054a4.731,4.731,0,0,1,.308,2.5,5.282,5.282,0,0,1-3.283,4.082,4.323,4.323,0,0,1-2.771.08L94.034,86.2a2.571,2.571,0,0,0,1.541-.136,3.093,3.093,0,0,0,1.238-1,3.386,3.386,0,0,0,.7-1.621,3.012,3.012,0,0,0-.269-1.689,4.365,4.365,0,0,0-2.986-2.285,3.042,3.042,0,0,0-1.7.176,3.334,3.334,0,0,0-1.389,1.094,3.1,3.1,0,0,0-.642,1.454,2.555,2.555,0,0,0,.273,1.525l-1.159,1.515a4.289,4.289,0,0,1-.642-2.692,5.089,5.089,0,0,1,1.076-2.64,5,5,0,0,1,2.017-1.595,4.736,4.736,0,0,1,2.488-.35,5.243,5.243,0,0,1,4.047,3.1" transform="translate(14.283 12.508)" fill="#ffffff"/>
          <path id="Pfad_50" data-name="Pfad 50" d="M86.019,97.629l-6.1-7.516,1.234-1L83.82,92.4l3.537-2.87-2.668-3.288,1.232-1,6.1,7.516-1.234,1-2.615-3.223-3.535,2.869,2.614,3.224Z" transform="translate(12.83 13.685)" fill="#ffffff"/>
          <path id="Pfad_51" data-name="Pfad 51" d="M79.773,99.622,78.47,97.1,75.5,98.629l-.593-1.151,2.969-1.533-1.36-2.634-3.341,1.723-.593-1.151,4.751-2.452,4.446,8.613L77.025,102.5l-.594-1.152Z" transform="translate(11.652 14.678)" fill="#ffffff"/>
          <path id="Pfad_52" data-name="Pfad 52" d="M62.616,97.081l1.53-.42,6.521,5.7-1.914-6.97,1.53-.42,2.568,9.346-1.531.421L64.8,99.05l1.91,6.956-1.53.421Z" transform="translate(10.052 15.247)" fill="#ffffff"/>
          <path id="Pfad_53" data-name="Pfad 53" d="M31.81,102.362l.464-1.208,2.406.924,3.006-7.825,1.482.569-3.006,7.827,2.417.93-.464,1.208Z" transform="translate(5.107 15.131)" fill="#ffffff"/>
          <path id="Pfad_54" data-name="Pfad 54" d="M27.326,98.566l1.5-2.413-2.84-1.763.682-1.1,2.841,1.761,1.563-2.522-3.2-1.981.684-1.1L33.1,92.266,27.992,100.5l-4.546-2.818.684-1.1Z" transform="translate(3.764 14.36)" fill="#ffffff"/>
          <path id="Pfad_55" data-name="Pfad 55" d="M22.625,84.462l-1.011,4.351.887.826,2.64-2.831L26.3,87.891l-6.6,7.078-2.444-2.278a4.161,4.161,0,0,1-1.114-1.571,2.721,2.721,0,0,1-.135-1.552,2.856,2.856,0,0,1,.718-1.333,2.907,2.907,0,0,1,1.575-.882,2.8,2.8,0,0,1,1.954.384l.983-4.567Zm-.989,6.1-1.282-1.2a1.838,1.838,0,0,0-1.288-.59,1.606,1.606,0,0,0-1.147.566,1.549,1.549,0,0,0-.477,1.165,1.889,1.889,0,0,0,.7,1.231l1.285,1.2Z" transform="translate(2.561 13.352)" fill="#ffffff"/>
          <path id="Pfad_56" data-name="Pfad 56" d="M6.3,78.507l8.1-5.3.869,1.329L9.724,78.165,16.887,77l.6.921-3.92,6.115L19.115,80.4l.87,1.329-8.1,5.3L10.949,85.6l4.488-7-8.2,1.328Z" transform="translate(1.012 11.752)" fill="#ffffff"/>
          <rect id="Rechteck_8" data-name="Rechteck 8" width="9.678" height="1.587" transform="translate(4.151 82.957) rotate(-21.957)" fill="#ffffff"/>
          <path id="Pfad_57" data-name="Pfad 57" d="M9.865,58.057l.327,1.553L4.105,65.774l7.072-1.491.327,1.554-9.484,2-.327-1.555L7.765,60.12.707,61.609.38,60.056Z" transform="translate(0.061 9.32)" fill="#ffffff"/>
          <path id="Pfad_58" data-name="Pfad 58" d="M6.309,43.073a2.418,2.418,0,0,1,1.6-.342,2.393,2.393,0,0,1,1.271.549A2.594,2.594,0,0,1,9.967,44.5a3.907,3.907,0,0,1,.124,1.714L9.6,50.051,0,48.822l.467-3.659a3.983,3.983,0,0,1,.548-1.643,2.494,2.494,0,0,1,1.027-.95,2.294,2.294,0,0,1,1.3-.2,2.161,2.161,0,0,1,1.325.619,2.6,2.6,0,0,1,.663,1.292,2.147,2.147,0,0,1,.983-1.208M4.235,47.764l.248-1.946a1.881,1.881,0,0,0-.2-1.255A1.236,1.236,0,0,0,3.326,44a1.262,1.262,0,0,0-1.071.305,1.842,1.842,0,0,0-.52,1.162l-.25,1.949Zm4.328-2.886a1.344,1.344,0,0,0-1.019-.593,1.416,1.416,0,0,0-1.181.34,1.934,1.934,0,0,0-.579,1.231L5.52,47.93l3,.382.273-2.127a1.9,1.9,0,0,0-.226-1.307" transform="translate(0 6.799)" fill="#ffffff"/>
          <path id="Pfad_59" data-name="Pfad 59" d="M2.533,36.279l5.8,2.088a2.185,2.185,0,0,0,1.755.017,2.222,2.222,0,0,0,1.069-1.323,2.244,2.244,0,0,0,.026-1.716,2.195,2.195,0,0,0-1.365-1.1l-5.8-2.09.538-1.492,5.778,2.08A3.7,3.7,0,0,1,12.046,33.9a3.2,3.2,0,0,1,.687,1.713A4.682,4.682,0,0,1,11.444,39.2a3.128,3.128,0,0,1-1.613.861,3.774,3.774,0,0,1-2.056-.207l-5.779-2.08Z" transform="translate(0.32 4.922)" fill="#ffffff"/>
          <path id="Pfad_60" data-name="Pfad 60" d="M8.47,27.495a4.705,4.705,0,0,1-.487-2.468,5.285,5.285,0,0,1,2.979-4.308,4.325,4.325,0,0,1,2.757-.281l-1.047,1.6a2.549,2.549,0,0,0-1.527.246,3.085,3.085,0,0,0-1.163,1.085A3.376,3.376,0,0,0,9.4,25.033a3,3,0,0,0,.39,1.665,4.364,4.364,0,0,0,3.144,2.062,3.028,3.028,0,0,0,1.687-.3,3.338,3.338,0,0,0,1.307-1.191,3.116,3.116,0,0,0,.534-1.5,2.566,2.566,0,0,0-.381-1.5l1.047-1.593a4.291,4.291,0,0,1,.833,2.637,5.09,5.09,0,0,1-.881,2.712,5.036,5.036,0,0,1-1.9,1.737,4.734,4.734,0,0,1-2.455.528,5.237,5.237,0,0,1-4.26-2.8" transform="translate(1.279 3.264)" fill="#ffffff"/>
          <path id="Pfad_61" data-name="Pfad 61" d="M20.154,10.374l6.627,7.055-1.157,1.086-2.9-3.086-3.32,3.117,2.9,3.087L21.146,22.72l-6.625-7.054,1.158-1.089L18.52,17.6l3.318-3.117L19,11.462Z" transform="translate(2.331 1.665)" fill="#ffffff"/>
          <path id="Pfad_62" data-name="Pfad 62" d="M25.85,7.77l1.481,2.424,2.851-1.742.675,1.1L28.007,11.3l1.547,2.53,3.209-1.961.674,1.106-4.562,2.789L23.819,7.494,28.383,4.7l.675,1.107Z" transform="translate(3.824 0.755)" fill="#ffffff"/>
          <path id="Pfad_63" data-name="Pfad 63" d="M43.3,9.136l-1.5.53L34.882,4.449,37.3,11.261l-1.5.53L32.563,2.656l1.5-.53,6.912,5.2L38.562.531l1.5-.53Z" transform="translate(5.228 0)" fill="#ffffff"/>
        </g>
      </g>
    </g>
  </g>
</svg>
