<svg id="logo" xmlns="http://www.w3.org/2000/svg" xmlns:xlink="http://www.w3.org/1999/xlink" width="312.766" height="312.766" viewBox="0 0 312.766 312.766">
  <defs>
    <clipPath id="clip-path">
      <rect id="Rechteck_11" data-name="Rechteck 11" width="312.766" height="312.766" fill="#a4844a"/>
    </clipPath>
  </defs>
  <g id="Gruppe_12" data-name="Gruppe 12" transform="translate(0 0)" clip-path="url(#clip-path)">
    <path id="Pfad_66" data-name="Pfad 66" d="M71.982,95.285c-.812,1.436-2.49,2.629-5.038,3.553l1.614,4.256a133.8,133.8,0,0,0,16.685-3.353V67.651a21.825,21.825,0,0,1,.942-7.048,8.222,8.222,0,0,1,3.756-4.335,19.915,19.915,0,0,1,7.99-2.238V52.7h-37.5V54.03q6.5.78,9.746,3.211t3.254,9.939V88.318a14.291,14.291,0,0,1-1.447,6.967" transform="translate(92.939 81.059)" fill="#a4844a"/>
    <path id="Pfad_67" data-name="Pfad 67" d="M180.956,205.213a18.338,18.338,0,0,1-2.579-9.314l-4-85.634a2.15,2.15,0,0,1,0-1.416,22.449,22.449,0,0,1,.825-6.254,9.554,9.554,0,0,1,3.322-3.843,7.836,7.836,0,0,1,3.132-1.6c.944-.19,2.51-.411,4.7-.673V95.158H162.175l-36.248,94.314-11.672-30.854-2.2-5.812-2.477-6.566h-.01l-1.345-3.584h-.01l-5.492-14.515-.632-1.685h-.01l-2.157-5.7-9.687-25.6H63.462v1.325q3.521.24,5.48.51a12.5,12.5,0,0,1,4.619,1.919,16.108,16.108,0,0,1,2.629,1.916,19.382,19.382,0,0,1,2.31,2.429,3.781,3.781,0,0,1,.931,1.688l-1.967,36.006q-13.61-3.8-21.38-13.784Q43.514,111.044,43.516,84.115q0-16.907,5.17-28.055T61.675,39.036a47.375,47.375,0,0,1,16.091-8.1A59.063,59.063,0,0,1,93.225,28.7a48.51,48.51,0,0,1,24.651,6.223q10.8,6.236,13.312,17.5h1.244V25.955h-1.244Q129.38,29.8,125.546,29.8a31.209,31.209,0,0,1-5.941-.944q-10.572-2.273-15.89-3.01A77.6,77.6,0,0,0,92.832,25.1,65.982,65.982,0,0,0,66.6,30.153a58.362,58.362,0,0,0-20,13.771,62.182,62.182,0,0,0-16.862,42.46,59.794,59.794,0,0,0,11.5,35.935,53.1,53.1,0,0,0,17.687,15.961,63.974,63.974,0,0,0,18.309,6.794l-2.429,44.4a71.663,71.663,0,0,1-1.365,10.611,12.062,12.062,0,0,1-3.8,6.454q-2.889,2.589-8.451,2.66v1.256h29.04V209.2a19.783,19.783,0,0,1-7.429-2.388,9.114,9.114,0,0,1-3.642-5.32,32.327,32.327,0,0,1-.825-10.451l2.3-45.4c3.282.472,6.6.812,9.929.992l-1.386-3.642a65.847,65.847,0,0,1-8.342-1.216l1.647-32.453h.32L88.1,123.2l2.167,5.7h-.01l5.48,14.373,1.345,3.533,2.8,7.36,2.218,5.809,19.213,50.473,40.7-104.968h.31l4,88.606q.388,7.363-2.2,10.84c-1.716,2.33-5.028,3.743-9.936,4.266v1.256h37.341V209.2q-8.147-.076-10.571-3.985" transform="translate(45.747 38.606)" fill="#a4844a"/>
    <path id="Pfad_68" data-name="Pfad 68" d="M156.383,312.766C70.152,312.766,0,242.614,0,156.383S70.152,0,156.383,0,312.766,70.155,312.766,156.383,242.614,312.766,156.383,312.766m0-305.152C74.353,7.614,7.614,74.353,7.614,156.383S74.353,305.152,156.383,305.152s148.769-66.739,148.769-148.769S238.413,7.614,156.383,7.614" transform="translate(0 0)" fill="#a4844a"/>
  </g>
</svg>
