<svg xmlns="http://www.w3.org/2000/svg" width="50.768" height="48.031" viewBox="0 0 50.768 48.031">
  <path id="local_activity_FILL0_wght400_GRAD0_opsz48" d="M18.8,32.1,24,28.05l5.2,4.05-2-6.4,4.9-4.1h-6L24,15.5l-2.1,6.1h-6l4.9,4.1ZM7,40a2.907,2.907,0,0,1-3-3V29.35a5.372,5.372,0,0,0,3.075-1.875A5.27,5.27,0,0,0,8.3,24a5.368,5.368,0,0,0-1.225-3.5A5.087,5.087,0,0,0,4,18.65V11A2.907,2.907,0,0,1,7,8H41a2.907,2.907,0,0,1,3,3v7.65a5.087,5.087,0,0,0-3.075,1.85A5.368,5.368,0,0,0,39.7,24a5.27,5.27,0,0,0,1.225,3.475A5.372,5.372,0,0,0,44,29.35V37a2.907,2.907,0,0,1-3,3Zm0-3H41V31.55a10.679,10.679,0,0,1-3.1-3.25,8.3,8.3,0,0,1,0-8.6A10.679,10.679,0,0,1,41,16.45V11H7v5.45a10.2,10.2,0,0,1,3.125,3.25,8.456,8.456,0,0,1,0,8.6A10.2,10.2,0,0,1,7,31.55ZM24,24Z" transform="translate(-7.549 15.804) rotate(-31)" fill="#ffffff"/>
</svg>
