<svg xmlns="http://www.w3.org/2000/svg" width="24.03" height="24" viewBox="0 0 24.03 24">
  <path id="cut_FILL0_wght400_GRAD0_opsz48" d="M25.06,26.98l-9.03-9.03-3.51,3.51a2.566,2.566,0,0,1,.4.99A6.821,6.821,0,0,1,13,23.5,4.408,4.408,0,0,1,8.5,28,4.408,4.408,0,0,1,4,23.5,4.408,4.408,0,0,1,8.5,19a3.859,3.859,0,0,1,1.065.15,5.766,5.766,0,0,1,1.1.45l3.48-3.48L10.6,12.58a4.019,4.019,0,0,1-1.035.33A6.292,6.292,0,0,1,8.5,13,4.408,4.408,0,0,1,4,8.5,4.408,4.408,0,0,1,8.5,4,4.408,4.408,0,0,1,13,8.5a7.425,7.425,0,0,1-.075,1.08,2.931,2.931,0,0,1-.315.96L28.03,25.96v1.02ZM19.57,14.59l-1.98-1.98,7.47-7.47h2.97v.99ZM8.5,11.2a2.664,2.664,0,0,0,2.7-2.7A2.664,2.664,0,0,0,8.5,5.8,2.664,2.664,0,0,0,5.8,8.5a2.664,2.664,0,0,0,2.7,2.7Zm7.59,5.49a.563.563,0,1,0-.4-.165A.551.551,0,0,0,16.09,16.69ZM8.5,26.2a2.7,2.7,0,1,0,0-5.4,2.7,2.7,0,1,0,0,5.4Z" transform="translate(-4 -4)" fill="#a4844a"/>
</svg>
