<?xml version="1.0" encoding="utf-8"?>
<!-- Generator: Adobe Illustrator 28.2.0, SVG Export Plug-In . SVG Version: 6.00 Build 0)  -->
<svg version="1.1" id="Ebene_1" xmlns="http://www.w3.org/2000/svg" xmlns:xlink="http://www.w3.org/1999/xlink" x="0px" y="0px"
	 viewBox="0 0 71 71" style="enable-background:new 0 0 71 71;" xml:space="preserve">
<style type="text/css">
	.st0{fill:#4285F4;}
	.st1{fill:#34A853;}
	.st2{fill:#FBBC05;}
	.st3{fill:#EA4335;}
	.st4{fill:none;}
</style>
<g id="Google__G__logo" transform="translate(13.455 14.998)">
	<path id="Pfad_72" class="st0" d="M51.1,21.2c0-2.1-0.2-4.2-0.6-6.2H22v11.7h16.3c-0.7,3.7-2.9,7-6.1,9.1v7.6h9.8
		C48.1,37.7,51.4,29.6,51.1,21.2L51.1,21.2z"/>
	<path id="Pfad_73" class="st1" d="M22,50.8c7.4,0.2,14.5-2.4,20-7.3l-9.8-7.6c-8.4,5.5-19.7,3-25.2-5.4c-0.8-1.3-1.5-2.7-2-4.2H-5
		v7.8C0.1,44.4,10.6,50.8,22,50.8z"/>
	<path id="Pfad_74" class="st2" d="M5.1,26.3c-1.3-3.7-1.3-7.8,0-11.5V6.9H-5c-4.3,8.5-4.3,18.6,0,27.2L2.9,28L5.1,26.3z"/>
	<path id="Pfad_75" class="st3" d="M22,2.3c4.3-0.1,8.5,1.6,11.6,4.5l8.7-8.7c-5.5-5.2-12.7-8-20.3-7.9C10.6-9.8,0.1-3.3-5,6.9
		l10.1,7.8C7.5,7.4,14.3,2.4,22,2.3z"/>
	<path id="Pfad_76" class="st4" d="M-8.2-9.8h60.6v60.6H-8.2V-9.8z"/>
</g>
</svg>
